# xmcd
#
# Track frame offsets:
#	150
#	20185
#	61655
#	77982
#	105745
#
# Disc length: 1682 seconds
#
# Revision: 1
# Processed by: cddbd v1.5.2PL0 Copyright (c) Steve Scherf et al.
# Submitted via: audiograbber 1.83.01
#
DISCID=3a069005
DTITLE=Jesse Sykes and The Sweet Hereafter - Gentleness Of Nothing
DYEAR=2008
DGENRE=Country
TTITLE0=Be It Me, Or Be It None
TTITLE1=Gentleness Of Nothing (peculiar pleasure)
TTITLE2=In The Summertime
TTITLE3=Sunday Skin
TTITLE4="The Air Is Thin", Video from Juan's Basement
EXTD=
EXTT0=
EXTT1=
EXTT2=
EXTT3=
EXTT4=
PLAYORDER=
